<svg xmlns="http://www.w3.org/2000/svg" width="136" height="58.83"><defs><style>.cls-1{fill:#fff}</style></defs><rect class="cls-1" x="68" y=".74" width="67.37" height="15.74" rx="4"/><path class="cls-1" d="M44.91 21.39h8.49v2.89h-2.8v12.49h-3V24.28h-2.69zm16.09 0h3l5.91 15.38h-3L65.6 33.6h-6.28l-1.25 3.17H55zm1.5 4.08l-2.1 5.28h4.11zm7.23-4.08h3.14l2.87 5.53 2.85-5.53h3.11l-4.5 8.72v6.66h-3v-6.66zm15.27 0h2.81l6.58 10.12V21.39h2.93v15.38h-2.86l-6.57-10.09v10.09H85zm21.33 0h3l5.92 15.38h-3L111 33.6h-6.3l-1.25 3.17h-3zm1.51 4.08l-2.07 5.28h4.12zm7.16-4.08h3l3.87 10.93 3.92-10.93h3l-5.49 15.38h-2.82zm16.83 0h2.91v15.38h-2.91zM43.56 11a9 9 0 01-3.33.79c-.92 0-1.39-.19-1.39-.58 0-.24.52-.38 1.55-.42a6.14 6.14 0 002.23-.36 3.34 3.34 0 002-3.1A5 5 0 0044 5.09c-1.12-2-3.83-3-8.13-3a25.28 25.28 0 00-7.45 1.13 15.67 15.67 0 00-6.24 3.46c-1.68 1.55-2.52 3-2.52 4.32q0 3 6 4.46l6.19 1.16a15.26 15.26 0 015.56 1.89 4.62 4.62 0 012.41 4.19 8.58 8.58 0 01-.36 2.36q-1.68 5.67-8.66 8.66a33.86 33.86 0 01-13.67 2.58 32 32 0 01-3.93-.21 17.61 17.61 0 004.4 1.62q.21.06.21.21c0 .32-.37.47-1.1.47-1.43 0-3.22-.85-5.35-2.57a13.74 13.74 0 01-6.5-2.41 10.48 10.48 0 01-2.52-3.25 8.35 8.35 0 01-1.15-3.88 5.55 5.55 0 01.68-2.89c1-1.85 2.37-2.78 4-2.78 1.23 0 1.94 1 2.15 3.1.49 4 .82 6.26 1 6.82a9.81 9.81 0 002.68 4.35 23 23 0 004.77.47 29 29 0 0011.1-2.25 15.66 15.66 0 007.87-6.4 5.76 5.76 0 001-2.89q0-2.46-4.35-3.83l-9.23-2.09a10.07 10.07 0 01-4.54-2.26A4.79 4.79 0 0116.61 12c0-2.1 1.31-4.19 3.93-6.29A21.61 21.61 0 0127.86 2 28.67 28.67 0 0136.35.63a17 17 0 016.9 1.21q3.51 1.62 3.51 4.74a4.44 4.44 0 01-3.2 4.42zM9.79 34.36a16.84 16.84 0 01-3.88-9.18C5.59 23 5.29 21.87 5 21.87a1.38 1.38 0 00-.78.24 2.47 2.47 0 00-.74 1 5 5 0 00-.36 2.05A9.51 9.51 0 006 32.1a9.16 9.16 0 003.79 2.26z"/><path class="cls-1" d="M16.71 39c-1.57 0-3.4-.85-5.61-2.6a14.28 14.28 0 01-6.64-2.5 11.18 11.18 0 01-2.68-3.44 9.07 9.07 0 01-1.22-4.18 6.28 6.28 0 01.76-3.21C2.48 21 4 20 5.85 20c1.1 0 2.47.64 2.78 3.66.6 4.89.86 6.34 1 6.7a9.26 9.26 0 002.38 4 22.41 22.41 0 004.47.42 28.33 28.33 0 0010.88-2.21 15 15 0 007.56-6.13 5.12 5.12 0 00.91-2.57c0-1.33-1.31-2.41-3.91-3.23l-9.21-2.14a10.69 10.69 0 01-4.83-2.41A5.44 5.44 0 0116 12c0-2.29 1.4-4.57 4.17-6.78a22.34 22.34 0 017.52-3.86A29.29 29.29 0 0136.35 0a17.71 17.71 0 017.15 1.26c2.59 1.2 3.89 3 3.89 5.32a5.05 5.05 0 01-3.59 5 9.81 9.81 0 01-3.57.83c-1.66 0-2-.66-2-1.21 0-1 1.41-1 2.16-1.05a5.55 5.55 0 002-.31A2.71 2.71 0 0044 7.29a4.31 4.31 0 00-.51-1.92c-1-1.74-3.53-2.64-7.56-2.64a25.1 25.1 0 00-7.27 1.1 15.17 15.17 0 00-6 3.32c-1.55 1.42-2.33 2.72-2.33 3.85 0 1.69 1.87 3 5.55 3.85L32 16a15.81 15.81 0 015.79 2 5.24 5.24 0 012.69 4.72 9.19 9.19 0 01-.39 2.54c-1.17 3.95-4.2 7-9 9a34.58 34.58 0 01-14 2.63l.66.17a.85.85 0 01.69.82c0 .45-.22 1.12-1.73 1.12zm.74-.7zm18.9-37.04A28.15 28.15 0 0028 2.57a21.29 21.29 0 00-7.11 3.64c-2.45 2-3.69 3.91-3.69 5.8a4.18 4.18 0 001.5 3.16 9.34 9.34 0 004.3 2.1l9.23 2.1c3.23 1 4.84 2.5 4.84 4.44A6.36 6.36 0 0136 27a16.2 16.2 0 01-8.16 6.65 31.44 31.44 0 01-5.27 1.65 29.47 29.47 0 008.08-2.18c4.45-1.91 7.24-4.69 8.3-8.26a7.68 7.68 0 00.34-2.18 4 4 0 00-2.11-3.66 14.84 14.84 0 00-5.34-1.8l-6.19-1.16c-4.36-1-6.55-2.73-6.55-5.08 0-1.52.89-3.09 2.72-4.78a16.36 16.36 0 016.49-3.61 26.55 26.55 0 017.63-1.15c4.52 0 7.44 1.11 8.68 3.31a5.61 5.61 0 01.65 2.51 3.75 3.75 0 01-1 2.63 3.65 3.65 0 001.86-3.34c0-1.83-1-3.19-3.14-4.17a16.62 16.62 0 00-6.64-1.12zM2.86 23c-.15.22-.3.46-.45.71a5 5 0 00-.6 2.58 7.86 7.86 0 001.08 3.58 10 10 0 002.36 3.06 9.88 9.88 0 003.17 1.59 9.15 9.15 0 01-2.92-2 10.19 10.19 0 01-3-7.36A5.8 5.8 0 012.86 23zm1.88-.44a.7.7 0 00-.17.09 1.78 1.78 0 00-.51.76 4.33 4.33 0 00-.3 1.78 8.83 8.83 0 002.65 6.48 6.69 6.69 0 001.42 1.12 19.48 19.48 0 01-2.55-7.51 15.42 15.42 0 00-.54-2.73zm.56-1.26c.51.18.83 1 1.23 3.8a18 18 0 002.52 7.27 9.93 9.93 0 01-.65-1.65 57.89 57.89 0 01-1-6.93c-.26-2.54-1.21-2.54-1.53-2.54a3.41 3.41 0 00-.57.04zm57.42-11.2L49.56 21.84l-4.31-.5 12.9-11.5a3.23 3.23 0 014.57.26z"/><path class="cls-1" d="M42.24 16.84h-.06a.93.93 0 00-.06 1.65l2.76 1.75 2.54-2.06-4.71-1.36a.55.55 0 00-.47.02zm4.98-4.55v1.26c-.16.15-.09-.83.13-.79l4.75 2.32a.29.29 0 00.24-.06l3-2.67-5.59-1.07a4 4 0 00-2.53 1.01zM24.41 51.64h-1s-.11 0-.11-.13v-.8c0-.11 0-.12.11-.12h1.2V50a8.13 8.13 0 00-.1-1.52 10.44 10.44 0 011.09.08c.12 0 .2.06.2.13a.59.59 0 01-.07.24 2.9 2.9 0 00-.08 1.07v.68h.85c.07 0 .12 0 .12.12v.56A7.58 7.58 0 0029.06 49a3.14 3.14 0 00.35-.68c.43.07.74.12 1 .2.1 0 .15.06.15.15a.17.17 0 01-.09.15l-.1.08a7.76 7.76 0 003.31 2.34 2.12 2.12 0 00-.4.69c-.06.21-.11.29-.19.29a.7.7 0 01-.27-.11 9.14 9.14 0 01-1.07-.63V52c0 .11 0 .12-.13.12h-1.25v.81h2.21c.07 0 .12 0 .12.13v2.71c0 .07 0 .13-.12.13h-2a5.11 5.11 0 003 1.95 2.83 2.83 0 00-.43.76c-.08.21-.13.3-.22.3a1.33 1.33 0 01-.27-.09 5.41 5.41 0 01-2.81-2.32 4.66 4.66 0 01-2.77 2.34 1 1 0 01-.26.07c-.1 0-.13-.08-.23-.29a2.36 2.36 0 00-.47-.67 3.94 3.94 0 002.83-2h-1.72c-.08 0-.13 0-.13-.13v-2.71c0-.07 0-.13.13-.13h2.09v-.81H28.3s-.14 0-.14-.12v-.43a7.86 7.86 0 01-.89.62.77.77 0 01-.28.13c-.08 0-.11-.08-.21-.27s-.14-.25-.22-.37h-.81a7.12 7.12 0 001.23 2.09 2.76 2.76 0 00-.39.72c0 .14-.09.22-.13.22s-.09-.06-.15-.17a6.87 6.87 0 01-.64-1.39c0 3 .08 5.39.08 5.58s0 .13-.12.13h-.89c-.12 0-.13 0-.13-.13s.07-2.34.08-4.93A9.11 9.11 0 0123.68 56c-.07.12-.13.19-.17.19s-.1-.06-.13-.19a3.08 3.08 0 00-.38-.8 10.21 10.21 0 001.55-3.56zm3.72 2.12V55h1.11a8.65 8.65 0 00.09-1.19zm2.44-2.55h.84a7.51 7.51 0 01-1.53-1.5 9.52 9.52 0 01-1.34 1.5h2zm1.15 2.55h-1.33c0 .47-.05.85-.09 1.19h1.42zm6.28 3c.1.07.13.12.13.19s-.07.12-.17.14a1.7 1.7 0 00-.37.26 7.13 7.13 0 01-1.84 1.18.78.78 0 01-.26.09c-.1 0-.14-.08-.27-.26a2.42 2.42 0 00-.54-.56 7.47 7.47 0 002-1.08 3 3 0 00.46-.48 7 7 0 01.86.52zm4.55-2.91c.11-.07.15-.07.24 0a13.32 13.32 0 011.7 1.86c.06.1 0 .14-.07.22l-.65.39c-.15.08-.18.08-.22 0l-.4-.59c-.95.1-2 .18-3.12.25v2.73c0 .08 0 .13-.12.13H39c-.12 0-.13 0-.13-.13v-2.66c-1.06.06-2.14.1-3.11.12a2 2 0 00-.48.08.4.4 0 01-.19.07c-.08 0-.14-.07-.17-.17a9 9 0 01-.22-1h3.39a11.32 11.32 0 00-1.82-1.34c-.06 0-.08-.05-.08-.09s0 0 .09-.11l.52-.43c.1-.09.12-.09.24 0s.39.26.57.38a8.36 8.36 0 00.83-.94 3.85 3.85 0 00.22-.35H36v1.12c0 .11 0 .13-.13.13H35c-.11 0-.12 0-.12-.13v-1.96c0-.08 0-.13.12-.13h3.87v-.72h-3.95c-.07 0-.13 0-.13-.13v-.83c0-.11 0-.12.13-.12h3.92a4.84 4.84 0 00-.09-1.12 11.71 11.71 0 011.21.08c.12 0 .2.07.2.11a.57.57 0 01-.08.25 1.58 1.58 0 00-.07.68h4.12c.06 0 .13 0 .13.12v.83c0 .11 0 .13-.13.13H40v.72h4.07c.08 0 .12 0 .12.13v1.97c0 .09 0 .13-.12.13h-.91c-.12 0-.13 0-.13-.13v-1.18h-3.91c.23.1.42.2.53.26s.17.1.17.17 0 .11-.13.15a1 1 0 00-.34.27 11.15 11.15 0 01-1 1c.24.18.46.37.7.56a16.3 16.3 0 001.44-1.44 1.93 1.93 0 00.39-.57 7.76 7.76 0 011 .49c.09.06.13.11.13.16s-.06.13-.15.16a1.14 1.14 0 00-.37.26A14.6 14.6 0 0140 55c.87 0 1.7-.1 2.44-.16-.17-.17-.32-.34-.49-.5s-.07-.11.05-.19zm-.95 2.42a.2.2 0 01.13-.06s.06 0 .1.06a7.31 7.31 0 002.51 1.41 3.06 3.06 0 00-.58.65c-.12.19-.17.27-.26.27a.66.66 0 01-.26-.09A9.16 9.16 0 0141 56.87c-.09-.08-.07-.12 0-.21zm7.8-5.75c.09-.09.13-.09.23-.05.49.26 1 .54 1.43.84A11.67 11.67 0 0052.88 50h-5.57c-.07 0-.11 0-.11-.12v-.85c0-.12 0-.13.11-.13h6.32a1 1 0 00.29 0c.07 0 .1-.06.16-.06s.25.08.53.37.41.43.41.55-.07.16-.2.22a1.37 1.37 0 00-.42.29A16.84 16.84 0 0152 52l.4.33c.09.08.09.09 0 .19l-.18.16h2.56a.46.46 0 00.26-.05.35.35 0 01.17-.06c.1 0 .21 0 .57.33s.38.35.38.47-.05.14-.16.22a1.59 1.59 0 00-.42.42 10.2 10.2 0 01-1.58 1.6c-.12.11-.19.17-.26.17s-.12-.06-.27-.18a3.67 3.67 0 00-.78-.5 7.81 7.81 0 001.52-1.34h-2.48v3.65c0 .42-.13.85-.36 1s-.75.3-1.9.3c-.35 0-.35 0-.44-.37a3.66 3.66 0 00-.39-.9c.58 0 1.05.06 1.4.06s.43-.09.43-.4v-3.34h-4.18c-.06 0-.13 0-.13-.12v-.89c0-.11 0-.12.13-.12H51a16.61 16.61 0 00-2.14-1.43c-.06 0-.08-.05-.08-.09s0-.07.08-.11zM61 52.07c.14 0 .16 0 .22.07a10.42 10.42 0 01.84 2c0 .13 0 .18-.14.23l-.6.19c-.12 0-.17 0-.19-.08L61 54l-.78.08v4.6c0 .05 0 .13-.12.13h-.86c-.12 0-.13 0-.13-.13V54.2l-1.07.07a1.33 1.33 0 00-.42.09.35.35 0 01-.17.06c-.08 0-.11-.08-.14-.2 0-.27-.1-.53-.15-1a7.53 7.53 0 00.94 0l.63-.86a14.81 14.81 0 00-1.53-1.65c0-.05-.07-.07-.07-.1s0-.08.08-.15l.42-.56c0-.07.08-.1.11-.1s.06 0 .11.07l.28.29a9.48 9.48 0 00.61-1.14 3.11 3.11 0 00.26-.7 9.77 9.77 0 011 .41c.1.06.15.12.15.19s0 .1-.1.14a.65.65 0 00-.22.28 18.51 18.51 0 01-1 1.56c.17.19.34.37.5.57.26-.41.51-.83.76-1.26a5.35 5.35 0 00.35-.78 10.45 10.45 0 011 .48c.11.06.14.11.14.17a.17.17 0 01-.12.17 1.34 1.34 0 00-.38.47c-.58.92-1.2 1.79-1.72 2.46l1.35-.08c-.1-.25-.21-.49-.32-.72s0-.13.11-.19zm-3.29 3.41a4.23 4.23 0 000-.63l.87.12c.14 0 .19.08.19.14a.44.44 0 01-.06.17.91.91 0 00-.07.36 13.78 13.78 0 01-.43 2.18c-.05.17-.09.25-.16.25a.55.55 0 01-.26-.14 2.65 2.65 0 00-.6-.27 8.79 8.79 0 00.49-2.18zm3.59-.67c.14 0 .16 0 .2.11a15.6 15.6 0 01.58 2.14c0 .12 0 .16-.13.2l-.61.21c-.17.05-.18 0-.2-.09a17.17 17.17 0 00-.51-2.18c0-.12 0-.15.1-.19zm2-3.48a6.9 6.9 0 01-.88 1.27c-.13.14-.18.21-.25.21s-.13-.07-.24-.21a2.06 2.06 0 00-.61-.53 7 7 0 001.62-2.74 5.34 5.34 0 00.21-1c.44.08.88.19 1.1.24s.24.1.24.18 0 .13-.11.23a1.41 1.41 0 00-.32.58c-.08.23-.16.46-.26.69h3.29c.07 0 .13 0 .13.13v.94a35.91 35.91 0 01-.41 5.68c-.18 1.16-.65 1.7-1.72 1.73h-.85c-.29 0-.34 0-.42-.39a3.09 3.09 0 00-.32-.86 8.84 8.84 0 001.44.1c.42 0 .61-.37.73-1a33.76 33.76 0 00.33-5.25zm0 1.53c.13-.06.16 0 .23 0a10.92 10.92 0 011.29 2.16c.06.12 0 .15-.1.22l-.72.43c-.12.08-.17.06-.21-.07a12.39 12.39 0 00-1.19-2.19c-.08-.11-.08-.14.07-.22zm13.33-1.33h1.71c.14 0 .15.06.16.18a6.76 6.76 0 010 .9c0 .15 0 .19-.2.18h-2.09a6.72 6.72 0 01-.88 3.49 5.32 5.32 0 01-2.67 2.11.89.89 0 01-.32.1c-.07 0-.12 0-.21-.12a2.68 2.68 0 00-.94-.68 4.93 4.93 0 003.06-2 5.54 5.54 0 00.67-2.89H72.5v2.29c0 .12-.06.15-.19.16a7.85 7.85 0 01-1 0c-.15 0-.22 0-.21-.16 0-.59.06-1.15.06-1.86v-.43h-.34c-.61 0-1.52 0-1.87.06-.09 0-.13-.07-.14-.22s-.05-.63-.08-1.1c.48 0 1.22.06 2.09.06h.34v-.83a7.48 7.48 0 00-.08-1.77 11.07 11.07 0 011.39.19c.12 0 .17.07.17.15a.9.9 0 01-.07.24 2.85 2.85 0 00-.08 1.09v.83h2.44v-1.07a7.67 7.67 0 00-.1-1.56 11 11 0 011.32.2c.16 0 .21.09.21.18a.51.51 0 01-.05.2 3.13 3.13 0 00-.09 1v1.08zm5.99 2.9a9 9 0 00-1.67.14c-.13 0-.22-.07-.26-.24s-.12-.8-.17-1.37a15.12 15.12 0 002.45.13h6.26c.17 0 .2 0 .2.16a6.25 6.25 0 010 1.06c0 .14 0 .18-.2.17H86.7zm11.87-1.66a20.35 20.35 0 002.76-1.1 3.44 3.44 0 001.22-.81 6.74 6.74 0 01.94 1 .36.36 0 01.09.2c0 .09-.06.17-.19.21a5.83 5.83 0 00-1 .37 31 31 0 01-3.88 1.41v1.5c0 .54.08.72.37.81a5.83 5.83 0 001.43.12 20.26 20.26 0 003.2-.26c.17 0 .19 0 .2.16 0 .32.07.75.07 1s-.07.19-.24.2a22.49 22.49 0 01-3.37.21 5.6 5.6 0 01-2.09-.3c-.57-.24-.81-.77-.81-1.7v-4.18a12 12 0 00-.11-2.08 10.46 10.46 0 011.43.23c.13 0 .18.1.18.18a.46.46 0 01-.08.24 2.62 2.62 0 00-.11 1zm4.74-3.27h.17a5.16 5.16 0 011.07 1.21v.18l-.48.36h-.19a5.41 5.41 0 00-1.15-1.31zm1-.74h.17a4.9 4.9 0 011.08 1.24.13.13 0 010 .21l-.46.35c-.09.06-.14 0-.19 0a5.16 5.16 0 00-1.13-1.3zm8.77 1.29a1.67 1.67 0 00.78-.1.22.22 0 01.13 0 .33.33 0 01.19.09 4.32 4.32 0 01.74.79.33.33 0 01.05.15.29.29 0 01-.14.22 2.1 2.1 0 00-.42.5 18.36 18.36 0 01-1.45 2.12 28 28 0 013.14 2.75.26.26 0 01.09.16.3.3 0 01-.08.16 6.2 6.2 0 01-.76.78.22.22 0 01-.14.06c-.06 0-.1 0-.16-.09a20.82 20.82 0 00-2.94-2.81 16.5 16.5 0 01-3.81 3 .79.79 0 01-.26.1.27.27 0 01-.2-.11 3.17 3.17 0 00-1-.73A14.1 14.1 0 00109 51.3h-2.92c-.59 0-1.18 0-1.79.07-.09 0-.13-.07-.15-.19A6.41 6.41 0 01104 50h1.91z"/><path d="M81.08 5.17a3.36 3.36 0 00.2-.61 4.79 4.79 0 01.93.33c.1 0 .14.09.14.16a.17.17 0 01-.08.14.68.68 0 00-.22.29A9.47 9.47 0 0179.27 9c-.1.08-.17.13-.21.13S79 9 78.88 8.88a2.05 2.05 0 00-.53-.61 7.29 7.29 0 002.73-3.1zm3.12 4h.12l.07.05a19.92 19.92 0 012 3c0 .08 0 .1-.08.18l-.71.4a.25.25 0 01-.11.05s-.06 0-.09-.08c-.14-.29-.29-.57-.44-.86-1.59.24-3.31.43-5 .57a.93.93 0 00-.36.1.23.23 0 01-.16.07c-.06 0-.11-.06-.14-.15a6.84 6.84 0 01-.23-1h1.34a26.81 26.81 0 001.22-3.06 5.61 5.61 0 00.26-1c.37.08.69.15 1 .24.1 0 .18.09.18.16A.21.21 0 0183 8a1.53 1.53 0 00-.24.46c-.34.9-.76 2-1.21 2.93 1-.07 2-.17 2.91-.27-.31-.47-.62-.93-1-1.4 0-.07 0-.09.08-.17zm-.2-4.6c.13-.05.15 0 .19 0a7.68 7.68 0 003.07 3.5 2.52 2.52 0 00-.53.7c-.07.15-.12.21-.18.21s-.1 0-.19-.12A10 10 0 0183.3 5c0-.1 0-.11.09-.17zM89.5 7h-1.21c-.06 0-.09 0-.09-.11v-.71c0-.1 0-.11.09-.11h4.6v-.39a10.09 10.09 0 00-.07-1.35c.34 0 .71 0 1 .05.09 0 .15.06.15.12a.66.66 0 01-.06.2 3 3 0 00-.05 1v.42h2.37c.05 0 .11 0 .11.11v.75c0 .1 0 .11-.11.11h-2.31a12.09 12.09 0 00.54 3.23c.27.85.57 1.4.85 1.4s.37-.52.43-1.38a2.85 2.85 0 00.61.42c.27.16.27.16.24.45-.19 1.21-.59 1.72-1.15 1.71-.72 0-1.38-.68-1.85-2.08A14.59 14.59 0 0192.94 7zM91 9.12V11a18.13 18.13 0 001.84-.53 5.72 5.72 0 000 .59c0 .32 0 .32-.29.4-.94.31-2.36.7-3.38.92a1.18 1.18 0 00-.4.14.31.31 0 01-.17.07s-.1 0-.13-.13-.17-.62-.24-.95a4.84 4.84 0 00.9-.12l.91-.17v-2.1h-1.45c-.06 0-.1 0-.1-.1v-.69c0-.1 0-.11.1-.11h3.92c.05 0 .12 0 .12.11V9c0 .09 0 .1-.12.1H91.4zm3.81-4.61s.08-.06.11-.06.06 0 .1.06a4.49 4.49 0 01.81.87c0 .07 0 .11-.07.19l-.44.3a.24.24 0 01-.12 0s-.06 0-.09-.07a4.24 4.24 0 00-.71-.8c-.07-.07-.05-.1 0-.17zm9.34 2.35h1.43c.11 0 .12 0 .13.15a4.69 4.69 0 010 .75c0 .12 0 .16-.16.15h-1.75a5.6 5.6 0 01-.73 2.91 4.45 4.45 0 01-2.23 1.76.87.87 0 01-.26.08c-.06 0-.1 0-.18-.1a2.06 2.06 0 00-.78-.57 4.09 4.09 0 002.55-1.67 4.51 4.51 0 00.55-2.41h-2v1.91c0 .1-.06.12-.16.13a5.47 5.47 0 01-.81 0c-.12 0-.18 0-.17-.13 0-.49.05-1 .05-1.55v-.4h-1.85c-.07 0-.1-.06-.11-.18a8.07 8.07 0 01-.07-.92h2.03v-.59a6.26 6.26 0 00-.12-1.39 11.13 11.13 0 011.15.15c.11 0 .15.07.15.14a.58.58 0 01-.06.19 2.27 2.27 0 00-.07.91v.69h2v-.93a6.76 6.76 0 00-.08-1.29 8.21 8.21 0 011.1.16c.14 0 .17.08.17.15a.67.67 0 010 .17 2.48 2.48 0 00-.08.83v.9zm8.06 3.57v2c0 .13 0 .17-.14.17h-.94c-.11 0-.14 0-.13-.16V8.27a16.62 16.62 0 01-2.59 1.81.27.27 0 01-.14 0 .25.25 0 01-.2-.1 3.67 3.67 0 00-.82-.55 14.92 14.92 0 003-1.94 14.44 14.44 0 002-2 2.77 2.77 0 00.6-1 9.86 9.86 0 011 .66.18.18 0 01.08.15.27.27 0 01-.13.2 3.79 3.79 0 00-.57.52 14.2 14.2 0 01-1.1 1.19zm8.05-3.09a13.45 13.45 0 013 1.29.17.17 0 01.1.24 4.47 4.47 0 01-.41.82c0 .07-.07.11-.12.11a.12.12 0 01-.1-.05 10.47 10.47 0 00-2.49-1.21v3.94c0 .11 0 .14-.17.14a5.89 5.89 0 01-.84 0c-.13 0-.18 0-.18-.14V6a6.84 6.84 0 00-.1-1.4 6.48 6.48 0 011.18.16c.14 0 .18.08.18.16a.43.43 0 01-.07.21 2.36 2.36 0 00-.07.89z" fill="#042784"/><path class="cls-1" d="M135.37 42.92H.63a.63.63 0 010-1.26h134.74a.63.63 0 010 1.26z"/></svg>